<svg width="26" height="34" viewBox="0 0 26 34" fill="none" xmlns="http://www.w3.org/2000/svg">
<path d="M24.9717 11.5L14.8333 1.36166C14.5757 1.10373 14.2262 0.958649 13.8617 0.958328H5.66667C4.32953 0.958328 3.04717 1.4895 2.10167 2.435C1.15617 3.38049 0.625 4.66286 0.625 6V28C0.625 29.3371 1.15617 30.6195 2.10167 31.565C3.04717 32.5105 4.32953 33.0417 5.66667 33.0417H20.3333C21.6705 33.0417 22.9528 32.5105 23.8983 31.565C24.8438 30.6195 25.375 29.3371 25.375 28V12.4167C25.3606 12.0713 25.2166 11.744 24.9717 11.5V11.5ZM15.2917 5.65166L20.6817 11.0417H15.2917V5.65166ZM20.3333 30.2917H5.66667C5.05888 30.2917 4.47598 30.0502 4.04621 29.6205C3.61644 29.1907 3.375 28.6078 3.375 28V6C3.375 5.39221 3.61644 4.80931 4.04621 4.37954C4.47598 3.94977 5.05888 3.70833 5.66667 3.70833H12.5417V12.4167C12.5464 12.7799 12.6928 13.1268 12.9496 13.3837C13.2065 13.6405 13.5535 13.7869 13.9167 13.7917H22.625V28C22.625 28.6078 22.3836 29.1907 21.9538 29.6205C21.524 30.0502 20.9411 30.2917 20.3333 30.2917Z" fill="#CD3149"/>
<path d="M15.7317 22.225C14.6044 21.5176 13.756 20.4425 13.33 19.1817C13.7248 18.0021 13.8439 16.7478 13.6784 15.515C13.6255 15.2044 13.474 14.9191 13.2464 14.7013C13.0187 14.4836 12.727 14.3449 12.4144 14.3058C12.1018 14.2667 11.7849 14.3293 11.5107 14.4844C11.2364 14.6394 11.0194 14.8787 10.8917 15.1667C10.683 16.6488 10.8403 18.1594 11.35 19.5667C10.6537 21.1933 9.87664 22.7842 9.02169 24.3333C7.72002 25.0667 5.94169 26.1667 5.66669 27.4317C5.44669 28.4583 7.37169 31.0983 10.6534 25.3783C12.1126 24.8366 13.6072 24.3956 15.1267 24.0583C16.2499 24.7006 17.5029 25.0827 18.7934 25.1767C19.0897 25.1844 19.3816 25.1043 19.6325 24.9465C19.8835 24.7887 20.0822 24.5603 20.2036 24.2899C20.3251 24.0196 20.3639 23.7193 20.3152 23.4269C20.2666 23.1346 20.1325 22.8631 19.93 22.6467C19.16 21.8583 16.8684 22.0783 15.7317 22.225ZM6.96836 27.725C7.48213 26.8458 8.16063 26.0739 8.96669 25.4517C7.72002 27.4317 6.96836 27.78 6.96836 27.7433V27.725ZM12.3217 15.24C12.7984 15.24 12.7617 17.3483 12.4317 17.9167C12.1831 17.0521 12.1454 16.1405 12.3217 15.2583V15.24ZM10.7267 24.1867C11.3478 23.0534 11.887 21.877 12.34 20.6667C12.8257 21.5705 13.5012 22.3585 14.32 22.9767C13.09 23.2848 11.888 23.6957 10.7267 24.205V24.1867ZM19.3434 23.8567C19.3434 23.8567 19.0134 24.26 16.905 23.3433C19.1967 23.1967 19.5817 23.7283 19.3434 23.875V23.8567Z" fill="#CD3149"/>
</svg>
